solid OpenSCAD_Model
  facet normal -1 0 0
    outer loop
      vertex 2.32071 -0.299988 0.5
      vertex 2.32071 0.299988 0.695
      vertex 2.32071 0.299988 0.5
    endloop
  endfacet
  facet normal -1 -0 0
    outer loop
      vertex 2.32071 0.299988 0.695
      vertex 2.32071 -0.299988 0.5
      vertex 2.32071 -0.299988 0.695
    endloop
  endfacet
  facet normal 1 -0 0
    outer loop
      vertex 11.0957 -2 0.695
      vertex 11.0957 2 0.5
      vertex 11.0957 2 0.695
    endloop
  endfacet
  facet normal 1 0 0
    outer loop
      vertex 11.0957 2 0.5
      vertex 11.0957 -2 0.695
      vertex 11.0957 -2 0.5
    endloop
  endfacet
  facet normal -0 0 1
    outer loop
      vertex 2.32071 0.299988 0.695
      vertex 11.0957 -2 0.695
      vertex 11.0957 2 0.695
    endloop
  endfacet
  facet normal 0 0 1
    outer loop
      vertex 11.0957 -2 0.695
      vertex 2.32071 0.299988 0.695
      vertex 2.32071 -0.299988 0.695
    endloop
  endfacet
  facet normal -0.190197 0.981746 0
    outer loop
      vertex 11.0957 2 0.5
      vertex 2.32071 0.299988 0.695
      vertex 11.0957 2 0.695
    endloop
  endfacet
  facet normal -0.190197 0.981746 0
    outer loop
      vertex 2.32071 0.299988 0.695
      vertex 11.0957 2 0.5
      vertex 2.32071 0.299988 0.5
    endloop
  endfacet
  facet normal -0.190197 -0.981746 0
    outer loop
      vertex 2.32071 -0.299988 0.5
      vertex 11.0957 -2 0.695
      vertex 2.32071 -0.299988 0.695
    endloop
  endfacet
  facet normal -0.190197 -0.981746 -0
    outer loop
      vertex 11.0957 -2 0.695
      vertex 2.32071 -0.299988 0.5
      vertex 11.0957 -2 0.5
    endloop
  endfacet
  facet normal -0.923879 -0.382684 0
    outer loop
      vertex 2.25885 0.610943 0.5
      vertex 2.02925 1.16525 0.695
      vertex 2.02925 1.16525 0.5
    endloop
  endfacet
  facet normal -0.923879 -0.382684 0
    outer loop
      vertex 2.02925 1.16525 0.695
      vertex 2.25885 0.610943 0.5
      vertex 2.25885 0.610943 0.695
    endloop
  endfacet
  facet normal 0.92388 0.382683 0
    outer loop
      vertex 11.0165 2.39838 0.695
      vertex 9.48572 6.0939 0.5
      vertex 9.48572 6.0939 0.695
    endloop
  endfacet
  facet normal 0.92388 0.382683 0
    outer loop
      vertex 9.48572 6.0939 0.5
      vertex 11.0165 2.39838 0.695
      vertex 11.0165 2.39838 0.5
    endloop
  endfacet
  facet normal -0.551417 0.83423 0
    outer loop
      vertex 9.48572 6.0939 0.5
      vertex 2.02925 1.16525 0.695
      vertex 9.48572 6.0939 0.695
    endloop
  endfacet
  facet normal -0.551417 0.83423 0
    outer loop
      vertex 2.02925 1.16525 0.695
      vertex 9.48572 6.0939 0.5
      vertex 2.02925 1.16525 0.5
    endloop
  endfacet
  facet normal 0.199979 -0.9798 0
    outer loop
      vertex 2.25885 0.610943 0.5
      vertex 11.0165 2.39838 0.695
      vertex 2.25885 0.610943 0.695
    endloop
  endfacet
  facet normal 0.199979 -0.9798 0
    outer loop
      vertex 11.0165 2.39838 0.695
      vertex 2.25885 0.610943 0.5
      vertex 11.0165 2.39838 0.5
    endloop
  endfacet
  facet normal 0 0 1
    outer loop
      vertex 9.48572 6.0939 0.695
      vertex 2.25885 0.610943 0.695
      vertex 11.0165 2.39838 0.695
    endloop
  endfacet
  facet normal 0 -0 1
    outer loop
      vertex 2.25885 0.610943 0.695
      vertex 9.48572 6.0939 0.695
      vertex 2.02925 1.16525 0.695
    endloop
  endfacet
  facet normal -0.707107 -0.707107 0
    outer loop
      vertex 1.85311 1.42886 0.5
      vertex 1.42886 1.85311 0.695
      vertex 1.42886 1.85311 0.5
    endloop
  endfacet
  facet normal -0.707107 -0.707107 0
    outer loop
      vertex 1.42886 1.85311 0.695
      vertex 1.85311 1.42886 0.5
      vertex 1.85311 1.42886 0.695
    endloop
  endfacet
  facet normal 0.707107 0.707107 0
    outer loop
      vertex 9.26006 6.43163 0.695
      vertex 6.43163 9.26006 0.5
      vertex 6.43163 9.26006 0.695
    endloop
  endfacet
  facet normal 0.707107 0.707107 0
    outer loop
      vertex 6.43163 9.26006 0.5
      vertex 9.26006 6.43163 0.695
      vertex 9.26006 6.43163 0.5
    endloop
  endfacet
  facet normal -0.828689 0.559709 0
    outer loop
      vertex 1.42886 1.85311 0.5
      vertex 6.43163 9.26006 0.695
      vertex 6.43163 9.26006 0.5
    endloop
  endfacet
  facet normal -0.828689 0.559709 0
    outer loop
      vertex 6.43163 9.26006 0.695
      vertex 1.42886 1.85311 0.5
      vertex 1.42886 1.85311 0.695
    endloop
  endfacet
  facet normal 0.559709 -0.828689 0
    outer loop
      vertex 1.85311 1.42886 0.5
      vertex 9.26006 6.43163 0.695
      vertex 1.85311 1.42886 0.695
    endloop
  endfacet
  facet normal 0.559709 -0.828689 0
    outer loop
      vertex 9.26006 6.43163 0.695
      vertex 1.85311 1.42886 0.5
      vertex 9.26006 6.43163 0.5
    endloop
  endfacet
  facet normal 0 0 1
    outer loop
      vertex 6.43163 9.26006 0.695
      vertex 1.85311 1.42886 0.695
      vertex 9.26006 6.43163 0.695
    endloop
  endfacet
  facet normal 0 -0 1
    outer loop
      vertex 1.85311 1.42886 0.695
      vertex 6.43163 9.26006 0.695
      vertex 1.42886 1.85311 0.695
    endloop
  endfacet
  facet normal 0.382683 0.92388 -0
    outer loop
      vertex 6.0939 9.48572 0.5
      vertex 2.39838 11.0165 0.695
      vertex 6.0939 9.48572 0.695
    endloop
  endfacet
  facet normal 0.382683 0.92388 0
    outer loop
      vertex 2.39838 11.0165 0.695
      vertex 6.0939 9.48572 0.5
      vertex 2.39838 11.0165 0.5
    endloop
  endfacet
  facet normal -0.9798 0.199979 0
    outer loop
      vertex 0.610943 2.25885 0.5
      vertex 2.39838 11.0165 0.695
      vertex 2.39838 11.0165 0.5
    endloop
  endfacet
  facet normal -0.9798 0.199979 0
    outer loop
      vertex 2.39838 11.0165 0.695
      vertex 0.610943 2.25885 0.5
      vertex 0.610943 2.25885 0.695
    endloop
  endfacet
  facet normal 0.83423 -0.551417 0
    outer loop
      vertex 1.16525 2.02925 0.695
      vertex 6.0939 9.48572 0.5
      vertex 6.0939 9.48572 0.695
    endloop
  endfacet
  facet normal 0.83423 -0.551417 0
    outer loop
      vertex 6.0939 9.48572 0.5
      vertex 1.16525 2.02925 0.695
      vertex 1.16525 2.02925 0.5
    endloop
  endfacet
  facet normal -0.382684 -0.923879 0
    outer loop
      vertex 0.610943 2.25885 0.5
      vertex 1.16525 2.02925 0.695
      vertex 0.610943 2.25885 0.695
    endloop
  endfacet
  facet normal -0.382684 -0.923879 -0
    outer loop
      vertex 1.16525 2.02925 0.695
      vertex 0.610943 2.25885 0.5
      vertex 1.16525 2.02925 0.5
    endloop
  endfacet
  facet normal 0 0 1
    outer loop
      vertex 2.39838 11.0165 0.695
      vertex 1.16525 2.02925 0.695
      vertex 6.0939 9.48572 0.695
    endloop
  endfacet
  facet normal 0 -0 1
    outer loop
      vertex 1.16525 2.02925 0.695
      vertex 2.39838 11.0165 0.695
      vertex 0.610943 2.25885 0.695
    endloop
  endfacet
  facet normal 0 -1 0
    outer loop
      vertex -0.299987 2.32071 0.5
      vertex 0.299988 2.32071 0.695
      vertex -0.299987 2.32071 0.695
    endloop
  endfacet
  facet normal 0 -1 -0
    outer loop
      vertex 0.299988 2.32071 0.695
      vertex -0.299987 2.32071 0.5
      vertex 0.299988 2.32071 0.5
    endloop
  endfacet
  facet normal 0 1 -0
    outer loop
      vertex 2 11.0957 0.5
      vertex -2 11.0957 0.695
      vertex 2 11.0957 0.695
    endloop
  endfacet
  facet normal 0 1 0
    outer loop
      vertex -2 11.0957 0.695
      vertex 2 11.0957 0.5
      vertex -2 11.0957 0.5
    endloop
  endfacet
  facet normal -0.981746 -0.190197 0
    outer loop
      vertex -0.299987 2.32071 0.5
      vertex -2 11.0957 0.695
      vertex -2 11.0957 0.5
    endloop
  endfacet
  facet normal -0.981746 -0.190197 0
    outer loop
      vertex -2 11.0957 0.695
      vertex -0.299987 2.32071 0.5
      vertex -0.299987 2.32071 0.695
    endloop
  endfacet
  facet normal 0.981746 -0.190197 0
    outer loop
      vertex 0.299988 2.32071 0.695
      vertex 2 11.0957 0.5
      vertex 2 11.0957 0.695
    endloop
  endfacet
  facet normal 0.981746 -0.190197 0
    outer loop
      vertex 2 11.0957 0.5
      vertex 0.299988 2.32071 0.695
      vertex 0.299988 2.32071 0.5
    endloop
  endfacet
  facet normal 0 0 1
    outer loop
      vertex 2 11.0957 0.695
      vertex -0.299987 2.32071 0.695
      vertex 0.299988 2.32071 0.695
    endloop
  endfacet
  facet normal 0 -0 1
    outer loop
      vertex -0.299987 2.32071 0.695
      vertex 2 11.0957 0.695
      vertex -2 11.0957 0.695
    endloop
  endfacet
  facet normal 0.382684 -0.923879 0
    outer loop
      vertex -1.16525 2.02925 0.5
      vertex -0.610943 2.25885 0.695
      vertex -1.16525 2.02925 0.695
    endloop
  endfacet
  facet normal 0.382684 -0.923879 0
    outer loop
      vertex -0.610943 2.25885 0.695
      vertex -1.16525 2.02925 0.5
      vertex -0.610943 2.25885 0.5
    endloop
  endfacet
  facet normal -0.382683 0.92388 0
    outer loop
      vertex -2.39838 11.0165 0.5
      vertex -6.0939 9.48572 0.695
      vertex -2.39838 11.0165 0.695
    endloop
  endfacet
  facet normal -0.382683 0.92388 0
    outer loop
      vertex -6.0939 9.48572 0.695
      vertex -2.39838 11.0165 0.5
      vertex -6.0939 9.48572 0.5
    endloop
  endfacet
  facet normal -0.83423 -0.551417 0
    outer loop
      vertex -1.16525 2.02925 0.5
      vertex -6.0939 9.48572 0.695
      vertex -6.0939 9.48572 0.5
    endloop
  endfacet
  facet normal -0.83423 -0.551417 0
    outer loop
      vertex -6.0939 9.48572 0.695
      vertex -1.16525 2.02925 0.5
      vertex -1.16525 2.02925 0.695
    endloop
  endfacet
  facet normal 0.9798 0.199979 0
    outer loop
      vertex -0.610943 2.25885 0.695
      vertex -2.39838 11.0165 0.5
      vertex -2.39838 11.0165 0.695
    endloop
  endfacet
  facet normal 0.9798 0.199979 0
    outer loop
      vertex -2.39838 11.0165 0.5
      vertex -0.610943 2.25885 0.695
      vertex -0.610943 2.25885 0.5
    endloop
  endfacet
  facet normal 0 0 1
    outer loop
      vertex -2.39838 11.0165 0.695
      vertex -1.16525 2.02925 0.695
      vertex -0.610943 2.25885 0.695
    endloop
  endfacet
  facet normal 0 0 1
    outer loop
      vertex -1.16525 2.02925 0.695
      vertex -2.39838 11.0165 0.695
      vertex -6.0939 9.48572 0.695
    endloop
  endfacet
  facet normal 0.707107 -0.707107 0
    outer loop
      vertex -1.85311 1.42886 0.695
      vertex -1.42886 1.85311 0.5
      vertex -1.42886 1.85311 0.695
    endloop
  endfacet
  facet normal 0.707107 -0.707107 0
    outer loop
      vertex -1.42886 1.85311 0.5
      vertex -1.85311 1.42886 0.695
      vertex -1.85311 1.42886 0.5
    endloop
  endfacet
  facet normal -0.707107 0.707107 0
    outer loop
      vertex -9.26006 6.43163 0.5
      vertex -6.43163 9.26006 0.695
      vertex -6.43163 9.26006 0.5
    endloop
  endfacet
  facet normal -0.707107 0.707107 0
    outer loop
      vertex -6.43163 9.26006 0.695
      vertex -9.26006 6.43163 0.5
      vertex -9.26006 6.43163 0.695
    endloop
  endfacet
  facet normal -0.559709 -0.828689 0
    outer loop
      vertex -9.26006 6.43163 0.5
      vertex -1.85311 1.42886 0.695
      vertex -9.26006 6.43163 0.695
    endloop
  endfacet
  facet normal -0.559709 -0.828689 -0
    outer loop
      vertex -1.85311 1.42886 0.695
      vertex -9.26006 6.43163 0.5
      vertex -1.85311 1.42886 0.5
    endloop
  endfacet
  facet normal 0.828689 0.559709 0
    outer loop
      vertex -1.42886 1.85311 0.695
      vertex -6.43163 9.26006 0.5
      vertex -6.43163 9.26006 0.695
    endloop
  endfacet
  facet normal 0.828689 0.559709 0
    outer loop
      vertex -6.43163 9.26006 0.5
      vertex -1.42886 1.85311 0.695
      vertex -1.42886 1.85311 0.5
    endloop
  endfacet
  facet normal 0 0 1
    outer loop
      vertex -6.43163 9.26006 0.695
      vertex -1.85311 1.42886 0.695
      vertex -1.42886 1.85311 0.695
    endloop
  endfacet
  facet normal 0 0 1
    outer loop
      vertex -1.85311 1.42886 0.695
      vertex -6.43163 9.26006 0.695
      vertex -9.26006 6.43163 0.695
    endloop
  endfacet
  facet normal 0.551417 0.83423 -0
    outer loop
      vertex -2.02925 1.16525 0.5
      vertex -9.48572 6.0939 0.695
      vertex -2.02925 1.16525 0.695
    endloop
  endfacet
  facet normal 0.551417 0.83423 0
    outer loop
      vertex -9.48572 6.0939 0.695
      vertex -2.02925 1.16525 0.5
      vertex -9.48572 6.0939 0.5
    endloop
  endfacet
  facet normal -0.92388 0.382683 0
    outer loop
      vertex -11.0165 2.39838 0.5
      vertex -9.48572 6.0939 0.695
      vertex -9.48572 6.0939 0.5
    endloop
  endfacet
  facet normal -0.92388 0.382683 0
    outer loop
      vertex -9.48572 6.0939 0.695
      vertex -11.0165 2.39838 0.5
      vertex -11.0165 2.39838 0.695
    endloop
  endfacet
  facet normal -0.199979 -0.9798 0
    outer loop
      vertex -11.0165 2.39838 0.5
      vertex -2.25885 0.610943 0.695
      vertex -11.0165 2.39838 0.695
    endloop
  endfacet
  facet normal -0.199979 -0.9798 -0
    outer loop
      vertex -2.25885 0.610943 0.695
      vertex -11.0165 2.39838 0.5
      vertex -2.25885 0.610943 0.5
    endloop
  endfacet
  facet normal 0 0 1
    outer loop
      vertex -9.48572 6.0939 0.695
      vertex -2.25885 0.610943 0.695
      vertex -2.02925 1.16525 0.695
    endloop
  endfacet
  facet normal 0 0 1
    outer loop
      vertex -2.25885 0.610943 0.695
      vertex -9.48572 6.0939 0.695
      vertex -11.0165 2.39838 0.695
    endloop
  endfacet
  facet normal 0.923879 -0.382684 0
    outer loop
      vertex -2.25885 0.610943 0.695
      vertex -2.02925 1.16525 0.5
      vertex -2.02925 1.16525 0.695
    endloop
  endfacet
  facet normal 0.923879 -0.382684 0
    outer loop
      vertex -2.02925 1.16525 0.5
      vertex -2.25885 0.610943 0.695
      vertex -2.25885 0.610943 0.5
    endloop
  endfacet
  facet normal 1 -0 0
    outer loop
      vertex -2.32071 -0.299987 0.695
      vertex -2.32071 0.299988 0.5
      vertex -2.32071 0.299988 0.695
    endloop
  endfacet
  facet normal 1 0 0
    outer loop
      vertex -2.32071 0.299988 0.5
      vertex -2.32071 -0.299987 0.695
      vertex -2.32071 -0.299987 0.5
    endloop
  endfacet
  facet normal -1 0 0
    outer loop
      vertex -11.0957 -2 0.5
      vertex -11.0957 2 0.695
      vertex -11.0957 2 0.5
    endloop
  endfacet
  facet normal -1 -0 0
    outer loop
      vertex -11.0957 2 0.695
      vertex -11.0957 -2 0.5
      vertex -11.0957 -2 0.695
    endloop
  endfacet
  facet normal 0.190197 -0.981746 0
    outer loop
      vertex -11.0957 -2 0.5
      vertex -2.32071 -0.299987 0.695
      vertex -11.0957 -2 0.695
    endloop
  endfacet
  facet normal 0.190197 -0.981746 0
    outer loop
      vertex -2.32071 -0.299987 0.695
      vertex -11.0957 -2 0.5
      vertex -2.32071 -0.299987 0.5
    endloop
  endfacet
  facet normal 0.190197 0.981746 -0
    outer loop
      vertex -2.32071 0.299988 0.5
      vertex -11.0957 2 0.695
      vertex -2.32071 0.299988 0.695
    endloop
  endfacet
  facet normal 0.190197 0.981746 0
    outer loop
      vertex -11.0957 2 0.695
      vertex -2.32071 0.299988 0.5
      vertex -11.0957 2 0.5
    endloop
  endfacet
  facet normal 0 0 1
    outer loop
      vertex -11.0957 2 0.695
      vertex -2.32071 -0.299987 0.695
      vertex -2.32071 0.299988 0.695
    endloop
  endfacet
  facet normal 0 0 1
    outer loop
      vertex -2.32071 -0.299987 0.695
      vertex -11.0957 2 0.695
      vertex -11.0957 -2 0.695
    endloop
  endfacet
  facet normal 0.923879 0.382684 0
    outer loop
      vertex -2.02925 -1.16525 0.695
      vertex -2.25885 -0.610943 0.5
      vertex -2.25885 -0.610943 0.695
    endloop
  endfacet
  facet normal 0.923879 0.382684 0
    outer loop
      vertex -2.25885 -0.610943 0.5
      vertex -2.02925 -1.16525 0.695
      vertex -2.02925 -1.16525 0.5
    endloop
  endfacet
  facet normal -0.92388 -0.382683 0
    outer loop
      vertex -9.48572 -6.0939 0.5
      vertex -11.0165 -2.39838 0.695
      vertex -11.0165 -2.39838 0.5
    endloop
  endfacet
  facet normal -0.92388 -0.382683 0
    outer loop
      vertex -11.0165 -2.39838 0.695
      vertex -9.48572 -6.0939 0.5
      vertex -9.48572 -6.0939 0.695
    endloop
  endfacet
  facet normal 0.551417 -0.83423 0
    outer loop
      vertex -9.48572 -6.0939 0.5
      vertex -2.02925 -1.16525 0.695
      vertex -9.48572 -6.0939 0.695
    endloop
  endfacet
  facet normal 0.551417 -0.83423 0
    outer loop
      vertex -2.02925 -1.16525 0.695
      vertex -9.48572 -6.0939 0.5
      vertex -2.02925 -1.16525 0.5
    endloop
  endfacet
  facet normal -0.199979 0.9798 0
    outer loop
      vertex -2.25885 -0.610943 0.5
      vertex -11.0165 -2.39838 0.695
      vertex -2.25885 -0.610943 0.695
    endloop
  endfacet
  facet normal -0.199979 0.9798 0
    outer loop
      vertex -11.0165 -2.39838 0.695
      vertex -2.25885 -0.610943 0.5
      vertex -11.0165 -2.39838 0.5
    endloop
  endfacet
  facet normal 0 0 1
    outer loop
      vertex -2.25885 -0.610943 0.695
      vertex -9.48572 -6.0939 0.695
      vertex -2.02925 -1.16525 0.695
    endloop
  endfacet
  facet normal 0 -0 1
    outer loop
      vertex -9.48572 -6.0939 0.695
      vertex -2.25885 -0.610943 0.695
      vertex -11.0165 -2.39838 0.695
    endloop
  endfacet
  facet normal 0.707107 0.707107 0
    outer loop
      vertex -1.42886 -1.85311 0.695
      vertex -1.85311 -1.42886 0.5
      vertex -1.85311 -1.42886 0.695
    endloop
  endfacet
  facet normal 0.707107 0.707107 0
    outer loop
      vertex -1.85311 -1.42886 0.5
      vertex -1.42886 -1.85311 0.695
      vertex -1.42886 -1.85311 0.5
    endloop
  endfacet
  facet normal -0.707107 -0.707107 0
    outer loop
      vertex -6.43163 -9.26006 0.5
      vertex -9.26006 -6.43163 0.695
      vertex -9.26006 -6.43163 0.5
    endloop
  endfacet
  facet normal -0.707107 -0.707107 0
    outer loop
      vertex -9.26006 -6.43163 0.695
      vertex -6.43163 -9.26006 0.5
      vertex -6.43163 -9.26006 0.695
    endloop
  endfacet
  facet normal 0.828689 -0.559709 0
    outer loop
      vertex -6.43163 -9.26006 0.695
      vertex -1.42886 -1.85311 0.5
      vertex -1.42886 -1.85311 0.695
    endloop
  endfacet
  facet normal 0.828689 -0.559709 0
    outer loop
      vertex -1.42886 -1.85311 0.5
      vertex -6.43163 -9.26006 0.695
      vertex -6.43163 -9.26006 0.5
    endloop
  endfacet
  facet normal -0.559709 0.828689 0
    outer loop
      vertex -1.85311 -1.42886 0.5
      vertex -9.26006 -6.43163 0.695
      vertex -1.85311 -1.42886 0.695
    endloop
  endfacet
  facet normal -0.559709 0.828689 0
    outer loop
      vertex -9.26006 -6.43163 0.695
      vertex -1.85311 -1.42886 0.5
      vertex -9.26006 -6.43163 0.5
    endloop
  endfacet
  facet normal 0 0 1
    outer loop
      vertex -1.85311 -1.42886 0.695
      vertex -6.43163 -9.26006 0.695
      vertex -1.42886 -1.85311 0.695
    endloop
  endfacet
  facet normal 0 -0 1
    outer loop
      vertex -6.43163 -9.26006 0.695
      vertex -1.85311 -1.42886 0.695
      vertex -9.26006 -6.43163 0.695
    endloop
  endfacet
  facet normal -0.83423 0.551417 0
    outer loop
      vertex -6.0939 -9.48572 0.5
      vertex -1.16525 -2.02925 0.695
      vertex -1.16525 -2.02925 0.5
    endloop
  endfacet
  facet normal -0.83423 0.551417 0
    outer loop
      vertex -1.16525 -2.02925 0.695
      vertex -6.0939 -9.48572 0.5
      vertex -6.0939 -9.48572 0.695
    endloop
  endfacet
  facet normal -0.382683 -0.92388 0
    outer loop
      vertex -6.0939 -9.48572 0.5
      vertex -2.39838 -11.0165 0.695
      vertex -6.0939 -9.48572 0.695
    endloop
  endfacet
  facet normal -0.382683 -0.92388 -0
    outer loop
      vertex -2.39838 -11.0165 0.695
      vertex -6.0939 -9.48572 0.5
      vertex -2.39838 -11.0165 0.5
    endloop
  endfacet
  facet normal 0.9798 -0.199979 0
    outer loop
      vertex -2.39838 -11.0165 0.695
      vertex -0.610943 -2.25885 0.5
      vertex -0.610943 -2.25885 0.695
    endloop
  endfacet
  facet normal 0.9798 -0.199979 0
    outer loop
      vertex -0.610943 -2.25885 0.5
      vertex -2.39838 -11.0165 0.695
      vertex -2.39838 -11.0165 0.5
    endloop
  endfacet
  facet normal 0.382684 0.923879 -0
    outer loop
      vertex -0.610943 -2.25885 0.5
      vertex -1.16525 -2.02925 0.695
      vertex -0.610943 -2.25885 0.695
    endloop
  endfacet
  facet normal 0.382684 0.923879 0
    outer loop
      vertex -1.16525 -2.02925 0.695
      vertex -0.610943 -2.25885 0.5
      vertex -1.16525 -2.02925 0.5
    endloop
  endfacet
  facet normal 0 0 1
    outer loop
      vertex -1.16525 -2.02925 0.695
      vertex -2.39838 -11.0165 0.695
      vertex -0.610943 -2.25885 0.695
    endloop
  endfacet
  facet normal 0 -0 1
    outer loop
      vertex -2.39838 -11.0165 0.695
      vertex -1.16525 -2.02925 0.695
      vertex -6.0939 -9.48572 0.695
    endloop
  endfacet
  facet normal 0 1 -0
    outer loop
      vertex 0.299987 -2.32071 0.5
      vertex -0.299988 -2.32071 0.695
      vertex 0.299987 -2.32071 0.695
    endloop
  endfacet
  facet normal 0 1 0
    outer loop
      vertex -0.299988 -2.32071 0.695
      vertex 0.299987 -2.32071 0.5
      vertex -0.299988 -2.32071 0.5
    endloop
  endfacet
  facet normal 0 -1 0
    outer loop
      vertex -2 -11.0957 0.5
      vertex 2 -11.0957 0.695
      vertex -2 -11.0957 0.695
    endloop
  endfacet
  facet normal 0 -1 -0
    outer loop
      vertex 2 -11.0957 0.695
      vertex -2 -11.0957 0.5
      vertex 2 -11.0957 0.5
    endloop
  endfacet
  facet normal 0.981746 0.190197 0
    outer loop
      vertex 2 -11.0957 0.695
      vertex 0.299987 -2.32071 0.5
      vertex 0.299987 -2.32071 0.695
    endloop
  endfacet
  facet normal 0.981746 0.190197 0
    outer loop
      vertex 0.299987 -2.32071 0.5
      vertex 2 -11.0957 0.695
      vertex 2 -11.0957 0.5
    endloop
  endfacet
  facet normal -0.981746 0.190197 0
    outer loop
      vertex -2 -11.0957 0.5
      vertex -0.299988 -2.32071 0.695
      vertex -0.299988 -2.32071 0.5
    endloop
  endfacet
  facet normal -0.981746 0.190197 0
    outer loop
      vertex -0.299988 -2.32071 0.695
      vertex -2 -11.0957 0.5
      vertex -2 -11.0957 0.695
    endloop
  endfacet
  facet normal -0 0 1
    outer loop
      vertex -0.299988 -2.32071 0.695
      vertex 2 -11.0957 0.695
      vertex 0.299987 -2.32071 0.695
    endloop
  endfacet
  facet normal 0 0 1
    outer loop
      vertex 2 -11.0957 0.695
      vertex -0.299988 -2.32071 0.695
      vertex -2 -11.0957 0.695
    endloop
  endfacet
  facet normal -0.382684 0.923879 0
    outer loop
      vertex 1.16525 -2.02925 0.5
      vertex 0.610943 -2.25885 0.695
      vertex 1.16525 -2.02925 0.695
    endloop
  endfacet
  facet normal -0.382684 0.923879 0
    outer loop
      vertex 0.610943 -2.25885 0.695
      vertex 1.16525 -2.02925 0.5
      vertex 0.610943 -2.25885 0.5
    endloop
  endfacet
  facet normal 0.382683 -0.92388 0
    outer loop
      vertex 2.39838 -11.0165 0.5
      vertex 6.0939 -9.48572 0.695
      vertex 2.39838 -11.0165 0.695
    endloop
  endfacet
  facet normal 0.382683 -0.92388 0
    outer loop
      vertex 6.0939 -9.48572 0.695
      vertex 2.39838 -11.0165 0.5
      vertex 6.0939 -9.48572 0.5
    endloop
  endfacet
  facet normal 0 0 1
    outer loop
      vertex 1.16525 -2.02925 0.695
      vertex 2.39838 -11.0165 0.695
      vertex 6.0939 -9.48572 0.695
    endloop
  endfacet
  facet normal 0 0 1
    outer loop
      vertex 2.39838 -11.0165 0.695
      vertex 1.16525 -2.02925 0.695
      vertex 0.610943 -2.25885 0.695
    endloop
  endfacet
  facet normal 0.83423 0.551417 0
    outer loop
      vertex 6.0939 -9.48572 0.695
      vertex 1.16525 -2.02925 0.5
      vertex 1.16525 -2.02925 0.695
    endloop
  endfacet
  facet normal 0.83423 0.551417 0
    outer loop
      vertex 1.16525 -2.02925 0.5
      vertex 6.0939 -9.48572 0.695
      vertex 6.0939 -9.48572 0.5
    endloop
  endfacet
  facet normal -0.9798 -0.199979 0
    outer loop
      vertex 2.39838 -11.0165 0.5
      vertex 0.610943 -2.25885 0.695
      vertex 0.610943 -2.25885 0.5
    endloop
  endfacet
  facet normal -0.9798 -0.199979 0
    outer loop
      vertex 0.610943 -2.25885 0.695
      vertex 2.39838 -11.0165 0.5
      vertex 2.39838 -11.0165 0.695
    endloop
  endfacet
  facet normal -0.707107 0.707107 0
    outer loop
      vertex 1.42886 -1.85311 0.5
      vertex 1.85311 -1.42886 0.695
      vertex 1.85311 -1.42886 0.5
    endloop
  endfacet
  facet normal -0.707107 0.707107 0
    outer loop
      vertex 1.85311 -1.42886 0.695
      vertex 1.42886 -1.85311 0.5
      vertex 1.42886 -1.85311 0.695
    endloop
  endfacet
  facet normal 0.707107 -0.707107 0
    outer loop
      vertex 6.43163 -9.26006 0.695
      vertex 9.26006 -6.43163 0.5
      vertex 9.26006 -6.43163 0.695
    endloop
  endfacet
  facet normal 0.707107 -0.707107 0
    outer loop
      vertex 9.26006 -6.43163 0.5
      vertex 6.43163 -9.26006 0.695
      vertex 6.43163 -9.26006 0.5
    endloop
  endfacet
  facet normal 0.559709 0.828689 -0
    outer loop
      vertex 9.26006 -6.43163 0.5
      vertex 1.85311 -1.42886 0.695
      vertex 9.26006 -6.43163 0.695
    endloop
  endfacet
  facet normal 0.559709 0.828689 0
    outer loop
      vertex 1.85311 -1.42886 0.695
      vertex 9.26006 -6.43163 0.5
      vertex 1.85311 -1.42886 0.5
    endloop
  endfacet
  facet normal -0.828689 -0.559709 0
    outer loop
      vertex 6.43163 -9.26006 0.5
      vertex 1.42886 -1.85311 0.695
      vertex 1.42886 -1.85311 0.5
    endloop
  endfacet
  facet normal -0.828689 -0.559709 0
    outer loop
      vertex 1.42886 -1.85311 0.695
      vertex 6.43163 -9.26006 0.5
      vertex 6.43163 -9.26006 0.695
    endloop
  endfacet
  facet normal 0 0 1
    outer loop
      vertex 1.85311 -1.42886 0.695
      vertex 6.43163 -9.26006 0.695
      vertex 9.26006 -6.43163 0.695
    endloop
  endfacet
  facet normal 0 0 1
    outer loop
      vertex 6.43163 -9.26006 0.695
      vertex 1.85311 -1.42886 0.695
      vertex 1.42886 -1.85311 0.695
    endloop
  endfacet
  facet normal 0.92388 -0.382683 0
    outer loop
      vertex 9.48572 -6.0939 0.695
      vertex 11.0165 -2.39838 0.5
      vertex 11.0165 -2.39838 0.695
    endloop
  endfacet
  facet normal 0.92388 -0.382683 0
    outer loop
      vertex 11.0165 -2.39838 0.5
      vertex 9.48572 -6.0939 0.695
      vertex 9.48572 -6.0939 0.5
    endloop
  endfacet
  facet normal -0.923879 0.382684 0
    outer loop
      vertex 2.02925 -1.16525 0.5
      vertex 2.25885 -0.610943 0.695
      vertex 2.25885 -0.610943 0.5
    endloop
  endfacet
  facet normal -0.923879 0.382684 0
    outer loop
      vertex 2.25885 -0.610943 0.695
      vertex 2.02925 -1.16525 0.5
      vertex 2.02925 -1.16525 0.695
    endloop
  endfacet
  facet normal -0.551417 -0.83423 0
    outer loop
      vertex 2.02925 -1.16525 0.5
      vertex 9.48572 -6.0939 0.695
      vertex 2.02925 -1.16525 0.695
    endloop
  endfacet
  facet normal -0.551417 -0.83423 -0
    outer loop
      vertex 9.48572 -6.0939 0.695
      vertex 2.02925 -1.16525 0.5
      vertex 9.48572 -6.0939 0.5
    endloop
  endfacet
  facet normal 0 0 1
    outer loop
      vertex 2.25885 -0.610943 0.695
      vertex 9.48572 -6.0939 0.695
      vertex 11.0165 -2.39838 0.695
    endloop
  endfacet
  facet normal 0 0 1
    outer loop
      vertex 9.48572 -6.0939 0.695
      vertex 2.25885 -0.610943 0.695
      vertex 2.02925 -1.16525 0.695
    endloop
  endfacet
  facet normal 0.199979 0.9798 -0
    outer loop
      vertex 11.0165 -2.39838 0.5
      vertex 2.25885 -0.610943 0.695
      vertex 11.0165 -2.39838 0.695
    endloop
  endfacet
  facet normal 0.199979 0.9798 0
    outer loop
      vertex 2.25885 -0.610943 0.695
      vertex 11.0165 -2.39838 0.5
      vertex 2.25885 -0.610943 0.5
    endloop
  endfacet
  facet normal 0.995185 0.0980173 0
    outer loop
      vertex 15 0 0.5
      vertex 14.7118 2.92635 -0.5
      vertex 14.7118 2.92635 0.5
    endloop
  endfacet
  facet normal 0.995185 0.0980173 0
    outer loop
      vertex 14.7118 2.92635 -0.5
      vertex 15 0 0.5
      vertex 15 0 -0.5
    endloop
  endfacet
  facet normal -0.995185 0.0980173 0
    outer loop
      vertex -15 0 -0.5
      vertex -14.7118 2.92635 0.5
      vertex -14.7118 2.92635 -0.5
    endloop
  endfacet
  facet normal -0.995185 0.0980173 0
    outer loop
      vertex -14.7118 2.92635 0.5
      vertex -15 0 -0.5
      vertex -15 0 0.5
    endloop
  endfacet
  facet normal 0.0980173 0.995185 -0
    outer loop
      vertex 2.92635 14.7118 -0.5
      vertex 0 15 0.5
      vertex 2.92635 14.7118 0.5
    endloop
  endfacet
  facet normal 0.0980173 0.995185 0
    outer loop
      vertex 0 15 0.5
      vertex 2.92635 14.7118 -0.5
      vertex 0 15 -0.5
    endloop
  endfacet
  facet normal -0.773011 -0.634393 0
    outer loop
      vertex -10.6066 -10.6066 -0.5
      vertex -12.472 -8.33355 0.5
      vertex -12.472 -8.33355 -0.5
    endloop
  endfacet
  facet normal -0.773011 -0.634393 0
    outer loop
      vertex -12.472 -8.33355 0.5
      vertex -10.6066 -10.6066 -0.5
      vertex -10.6066 -10.6066 0.5
    endloop
  endfacet
  facet normal 0.773011 0.634393 0
    outer loop
      vertex 12.472 8.33355 0.5
      vertex 10.6066 10.6066 -0.5
      vertex 10.6066 10.6066 0.5
    endloop
  endfacet
  facet normal 0.773011 0.634393 0
    outer loop
      vertex 10.6066 10.6066 -0.5
      vertex 12.472 8.33355 0.5
      vertex 12.472 8.33355 -0.5
    endloop
  endfacet
  facet normal -0.634393 0.773011 0
    outer loop
      vertex -8.33355 12.472 -0.5
      vertex -10.6066 10.6066 0.5
      vertex -8.33355 12.472 0.5
    endloop
  endfacet
  facet normal -0.634393 0.773011 0
    outer loop
      vertex -10.6066 10.6066 0.5
      vertex -8.33355 12.472 -0.5
      vertex -10.6066 10.6066 -0.5
    endloop
  endfacet
  facet normal -0.290285 0.95694 0
    outer loop
      vertex -2.92635 14.7118 -0.5
      vertex -5.74025 13.8582 0.5
      vertex -2.92635 14.7118 0.5
    endloop
  endfacet
  facet normal -0.290285 0.95694 0
    outer loop
      vertex -5.74025 13.8582 0.5
      vertex -2.92635 14.7118 -0.5
      vertex -5.74025 13.8582 -0.5
    endloop
  endfacet
  facet normal 0.634393 -0.773011 0
    outer loop
      vertex 8.33355 -12.472 -0.5
      vertex 10.6066 -10.6066 0.5
      vertex 8.33355 -12.472 0.5
    endloop
  endfacet
  facet normal 0.634393 -0.773011 0
    outer loop
      vertex 10.6066 -10.6066 0.5
      vertex 8.33355 -12.472 -0.5
      vertex 10.6066 -10.6066 -0.5
    endloop
  endfacet
  facet normal 0.773011 -0.634393 0
    outer loop
      vertex 10.6066 -10.6066 0.5
      vertex 12.472 -8.33355 -0.5
      vertex 12.472 -8.33355 0.5
    endloop
  endfacet
  facet normal 0.773011 -0.634393 0
    outer loop
      vertex 12.472 -8.33355 -0.5
      vertex 10.6066 -10.6066 0.5
      vertex 10.6066 -10.6066 -0.5
    endloop
  endfacet
  facet normal 0 0 -1
    outer loop
      vertex 14.7118 -2.92635 -0.5
      vertex 14.7118 2.92635 -0.5
      vertex 15 0 -0.5
    endloop
  endfacet
  facet normal 0 0 -1
    outer loop
      vertex 13.8582 -5.74025 -0.5
      vertex 14.7118 2.92635 -0.5
      vertex 14.7118 -2.92635 -0.5
    endloop
  endfacet
  facet normal 0 0 -1
    outer loop
      vertex 13.8582 -5.74025 -0.5
      vertex 13.8582 5.74025 -0.5
      vertex 14.7118 2.92635 -0.5
    endloop
  endfacet
  facet normal 0 0 -1
    outer loop
      vertex 12.472 -8.33355 -0.5
      vertex 13.8582 5.74025 -0.5
      vertex 13.8582 -5.74025 -0.5
    endloop
  endfacet
  facet normal 0 0 -1
    outer loop
      vertex 12.472 -8.33355 -0.5
      vertex 12.472 8.33355 -0.5
      vertex 13.8582 5.74025 -0.5
    endloop
  endfacet
  facet normal 0 0 -1
    outer loop
      vertex 10.6066 -10.6066 -0.5
      vertex 12.472 8.33355 -0.5
      vertex 12.472 -8.33355 -0.5
    endloop
  endfacet
  facet normal 0 0 -1
    outer loop
      vertex 10.6066 -10.6066 -0.5
      vertex 10.6066 10.6066 -0.5
      vertex 12.472 8.33355 -0.5
    endloop
  endfacet
  facet normal 0 0 -1
    outer loop
      vertex 8.33355 -12.472 -0.5
      vertex 10.6066 10.6066 -0.5
      vertex 10.6066 -10.6066 -0.5
    endloop
  endfacet
  facet normal 0 0 -1
    outer loop
      vertex 8.33355 -12.472 -0.5
      vertex 8.33355 12.472 -0.5
      vertex 10.6066 10.6066 -0.5
    endloop
  endfacet
  facet normal 0 0 -1
    outer loop
      vertex 5.74025 -13.8582 -0.5
      vertex 8.33355 12.472 -0.5
      vertex 8.33355 -12.472 -0.5
    endloop
  endfacet
  facet normal 0 0 -1
    outer loop
      vertex 5.74025 -13.8582 -0.5
      vertex 5.74025 13.8582 -0.5
      vertex 8.33355 12.472 -0.5
    endloop
  endfacet
  facet normal 0 0 -1
    outer loop
      vertex 2.92635 -14.7118 -0.5
      vertex 5.74025 13.8582 -0.5
      vertex 5.74025 -13.8582 -0.5
    endloop
  endfacet
  facet normal 0 0 -1
    outer loop
      vertex 2.92635 -14.7118 -0.5
      vertex 2.92635 14.7118 -0.5
      vertex 5.74025 13.8582 -0.5
    endloop
  endfacet
  facet normal 0 0 -1
    outer loop
      vertex 0 -15 -0.5
      vertex 2.92635 14.7118 -0.5
      vertex 2.92635 -14.7118 -0.5
    endloop
  endfacet
  facet normal 0 0 -1
    outer loop
      vertex 0 -15 -0.5
      vertex 0 15 -0.5
      vertex 2.92635 14.7118 -0.5
    endloop
  endfacet
  facet normal 0 0 -1
    outer loop
      vertex -2.92635 -14.7118 -0.5
      vertex 0 15 -0.5
      vertex 0 -15 -0.5
    endloop
  endfacet
  facet normal 0 0 -1
    outer loop
      vertex -2.92635 -14.7118 -0.5
      vertex -2.92635 14.7118 -0.5
      vertex 0 15 -0.5
    endloop
  endfacet
  facet normal 0 0 -1
    outer loop
      vertex -5.74025 -13.8582 -0.5
      vertex -2.92635 14.7118 -0.5
      vertex -2.92635 -14.7118 -0.5
    endloop
  endfacet
  facet normal 0 0 -1
    outer loop
      vertex -5.74025 -13.8582 -0.5
      vertex -5.74025 13.8582 -0.5
      vertex -2.92635 14.7118 -0.5
    endloop
  endfacet
  facet normal 0 0 -1
    outer loop
      vertex -8.33355 -12.472 -0.5
      vertex -5.74025 13.8582 -0.5
      vertex -5.74025 -13.8582 -0.5
    endloop
  endfacet
  facet normal 0 0 -1
    outer loop
      vertex -8.33355 -12.472 -0.5
      vertex -8.33355 12.472 -0.5
      vertex -5.74025 13.8582 -0.5
    endloop
  endfacet
  facet normal 0 0 -1
    outer loop
      vertex -10.6066 -10.6066 -0.5
      vertex -8.33355 12.472 -0.5
      vertex -8.33355 -12.472 -0.5
    endloop
  endfacet
  facet normal 0 0 -1
    outer loop
      vertex -10.6066 -10.6066 -0.5
      vertex -10.6066 10.6066 -0.5
      vertex -8.33355 12.472 -0.5
    endloop
  endfacet
  facet normal 0 0 -1
    outer loop
      vertex -12.472 -8.33355 -0.5
      vertex -10.6066 10.6066 -0.5
      vertex -10.6066 -10.6066 -0.5
    endloop
  endfacet
  facet normal 0 0 -1
    outer loop
      vertex -12.472 -8.33355 -0.5
      vertex -12.472 8.33355 -0.5
      vertex -10.6066 10.6066 -0.5
    endloop
  endfacet
  facet normal 0 0 -1
    outer loop
      vertex -13.8582 -5.74025 -0.5
      vertex -12.472 8.33355 -0.5
      vertex -12.472 -8.33355 -0.5
    endloop
  endfacet
  facet normal 0 0 -1
    outer loop
      vertex -13.8582 -5.74025 -0.5
      vertex -13.8582 5.74025 -0.5
      vertex -12.472 8.33355 -0.5
    endloop
  endfacet
  facet normal 0 0 -1
    outer loop
      vertex -14.7118 -2.92635 -0.5
      vertex -13.8582 5.74025 -0.5
      vertex -13.8582 -5.74025 -0.5
    endloop
  endfacet
  facet normal 0 0 -1
    outer loop
      vertex -14.7118 -2.92635 -0.5
      vertex -14.7118 2.92635 -0.5
      vertex -13.8582 5.74025 -0.5
    endloop
  endfacet
  facet normal 0 -0 -1
    outer loop
      vertex -14.7118 2.92635 -0.5
      vertex -14.7118 -2.92635 -0.5
      vertex -15 0 -0.5
    endloop
  endfacet
  facet normal 0.881921 0.471397 0
    outer loop
      vertex 13.8582 5.74025 0.5
      vertex 12.472 8.33355 -0.5
      vertex 12.472 8.33355 0.5
    endloop
  endfacet
  facet normal 0.881921 0.471397 0
    outer loop
      vertex 12.472 8.33355 -0.5
      vertex 13.8582 5.74025 0.5
      vertex 13.8582 5.74025 -0.5
    endloop
  endfacet
  facet normal 0.95694 0.290285 0
    outer loop
      vertex 14.7118 2.92635 0.5
      vertex 13.8582 5.74025 -0.5
      vertex 13.8582 5.74025 0.5
    endloop
  endfacet
  facet normal 0.95694 0.290285 0
    outer loop
      vertex 13.8582 5.74025 -0.5
      vertex 14.7118 2.92635 0.5
      vertex 14.7118 2.92635 -0.5
    endloop
  endfacet
  facet normal 0.471397 0.881921 -0
    outer loop
      vertex 8.33355 12.472 -0.5
      vertex 5.74025 13.8582 0.5
      vertex 8.33355 12.472 0.5
    endloop
  endfacet
  facet normal 0.471397 0.881921 0
    outer loop
      vertex 5.74025 13.8582 0.5
      vertex 8.33355 12.472 -0.5
      vertex 5.74025 13.8582 -0.5
    endloop
  endfacet
  facet normal 0.290285 0.95694 -0
    outer loop
      vertex 5.74025 13.8582 -0.5
      vertex 2.92635 14.7118 0.5
      vertex 5.74025 13.8582 0.5
    endloop
  endfacet
  facet normal 0.290285 0.95694 0
    outer loop
      vertex 2.92635 14.7118 0.5
      vertex 5.74025 13.8582 -0.5
      vertex 2.92635 14.7118 -0.5
    endloop
  endfacet
  facet normal 0.634393 0.773011 -0
    outer loop
      vertex 10.6066 10.6066 -0.5
      vertex 8.33355 12.472 0.5
      vertex 10.6066 10.6066 0.5
    endloop
  endfacet
  facet normal 0.634393 0.773011 0
    outer loop
      vertex 8.33355 12.472 0.5
      vertex 10.6066 10.6066 -0.5
      vertex 8.33355 12.472 -0.5
    endloop
  endfacet
  facet normal -0.881921 0.471397 0
    outer loop
      vertex -13.8582 5.74025 -0.5
      vertex -12.472 8.33355 0.5
      vertex -12.472 8.33355 -0.5
    endloop
  endfacet
  facet normal -0.881921 0.471397 0
    outer loop
      vertex -12.472 8.33355 0.5
      vertex -13.8582 5.74025 -0.5
      vertex -13.8582 5.74025 0.5
    endloop
  endfacet
  facet normal -0.773011 0.634393 0
    outer loop
      vertex -12.472 8.33355 -0.5
      vertex -10.6066 10.6066 0.5
      vertex -10.6066 10.6066 -0.5
    endloop
  endfacet
  facet normal -0.773011 0.634393 0
    outer loop
      vertex -10.6066 10.6066 0.5
      vertex -12.472 8.33355 -0.5
      vertex -12.472 8.33355 0.5
    endloop
  endfacet
  facet normal -0.95694 0.290285 0
    outer loop
      vertex -14.7118 2.92635 -0.5
      vertex -13.8582 5.74025 0.5
      vertex -13.8582 5.74025 -0.5
    endloop
  endfacet
  facet normal -0.95694 0.290285 0
    outer loop
      vertex -13.8582 5.74025 0.5
      vertex -14.7118 2.92635 -0.5
      vertex -14.7118 2.92635 0.5
    endloop
  endfacet
  facet normal -0 0 1
    outer loop
      vertex -2.25885 0.610943 0.5
      vertex -2.02925 -1.16525 0.5
      vertex -2.02925 1.16525 0.5
    endloop
  endfacet
  facet normal 0 0 1
    outer loop
      vertex -2.25885 0.610943 0.5
      vertex -2.25885 -0.610943 0.5
      vertex -2.02925 -1.16525 0.5
    endloop
  endfacet
  facet normal 0 0 1
    outer loop
      vertex -2.25885 0.610943 0.5
      vertex -2.32071 0.299988 0.5
      vertex -2.25885 -0.610943 0.5
    endloop
  endfacet
  facet normal 0 0 1
    outer loop
      vertex -11.0165 2.39838 0.5
      vertex -2.32071 0.299988 0.5
      vertex -2.25885 0.610943 0.5
    endloop
  endfacet
  facet normal 0 0 1
    outer loop
      vertex -2.32071 0.299988 0.5
      vertex -11.0165 2.39838 0.5
      vertex -11.0957 2 0.5
    endloop
  endfacet
  facet normal -0 0 1
    outer loop
      vertex -2.02925 -1.16525 0.5
      vertex -1.85311 -1.42886 0.5
      vertex -2.02925 1.16525 0.5
    endloop
  endfacet
  facet normal 0 0 1
    outer loop
      vertex -2.02925 -1.16525 0.5
      vertex -9.26006 -6.43163 0.5
      vertex -1.85311 -1.42886 0.5
    endloop
  endfacet
  facet normal 0 -0 1
    outer loop
      vertex -9.26006 -6.43163 0.5
      vertex -2.02925 -1.16525 0.5
      vertex -9.48572 -6.0939 0.5
    endloop
  endfacet
  facet normal -0 0 1
    outer loop
      vertex -2.32071 -0.299987 0.5
      vertex -2.25885 -0.610943 0.5
      vertex -2.32071 0.299988 0.5
    endloop
  endfacet
  facet normal 0 0 1
    outer loop
      vertex -2.32071 -0.299987 0.5
      vertex -11.0165 -2.39838 0.5
      vertex -2.25885 -0.610943 0.5
    endloop
  endfacet
  facet normal 0 -0 1
    outer loop
      vertex -11.0165 -2.39838 0.5
      vertex -2.32071 -0.299987 0.5
      vertex -11.0957 -2 0.5
    endloop
  endfacet
  facet normal -0 0 1
    outer loop
      vertex -1.85311 1.42886 0.5
      vertex -1.42886 -1.85311 0.5
      vertex -1.42886 1.85311 0.5
    endloop
  endfacet
  facet normal 0 0 1
    outer loop
      vertex -1.85311 1.42886 0.5
      vertex -1.85311 -1.42886 0.5
      vertex -1.42886 -1.85311 0.5
    endloop
  endfacet
  facet normal 0 0 1
    outer loop
      vertex -1.85311 1.42886 0.5
      vertex -2.02925 1.16525 0.5
      vertex -1.85311 -1.42886 0.5
    endloop
  endfacet
  facet normal 0 0 1
    outer loop
      vertex -9.26006 6.43163 0.5
      vertex -2.02925 1.16525 0.5
      vertex -1.85311 1.42886 0.5
    endloop
  endfacet
  facet normal 0 0 1
    outer loop
      vertex -2.02925 1.16525 0.5
      vertex -9.26006 6.43163 0.5
      vertex -9.48572 6.0939 0.5
    endloop
  endfacet
  facet normal -0 0 1
    outer loop
      vertex -1.16525 2.02925 0.5
      vertex -0.610943 -2.25885 0.5
      vertex -0.610943 2.25885 0.5
    endloop
  endfacet
  facet normal 0 0 1
    outer loop
      vertex -1.16525 2.02925 0.5
      vertex -1.16525 -2.02925 0.5
      vertex -0.610943 -2.25885 0.5
    endloop
  endfacet
  facet normal 0 0 1
    outer loop
      vertex -1.16525 2.02925 0.5
      vertex -1.42886 1.85311 0.5
      vertex -1.16525 -2.02925 0.5
    endloop
  endfacet
  facet normal 0 0 1
    outer loop
      vertex -6.0939 9.48572 0.5
      vertex -1.42886 1.85311 0.5
      vertex -1.16525 2.02925 0.5
    endloop
  endfacet
  facet normal 0 0 1
    outer loop
      vertex -1.42886 1.85311 0.5
      vertex -6.0939 9.48572 0.5
      vertex -6.43163 9.26006 0.5
    endloop
  endfacet
  facet normal -0 0 1
    outer loop
      vertex -0.610943 -2.25885 0.5
      vertex -0.299988 -2.32071 0.5
      vertex -0.610943 2.25885 0.5
    endloop
  endfacet
  facet normal 0 0 1
    outer loop
      vertex -0.610943 -2.25885 0.5
      vertex -2 -11.0957 0.5
      vertex -0.299988 -2.32071 0.5
    endloop
  endfacet
  facet normal 0 -0 1
    outer loop
      vertex -2 -11.0957 0.5
      vertex -0.610943 -2.25885 0.5
      vertex -2.39838 -11.0165 0.5
    endloop
  endfacet
  facet normal -0 0 1
    outer loop
      vertex -1.42886 -1.85311 0.5
      vertex -1.16525 -2.02925 0.5
      vertex -1.42886 1.85311 0.5
    endloop
  endfacet
  facet normal 0 0 1
    outer loop
      vertex -1.42886 -1.85311 0.5
      vertex -6.0939 -9.48572 0.5
      vertex -1.16525 -2.02925 0.5
    endloop
  endfacet
  facet normal 0 -0 1
    outer loop
      vertex -6.0939 -9.48572 0.5
      vertex -1.42886 -1.85311 0.5
      vertex -6.43163 -9.26006 0.5
    endloop
  endfacet
  facet normal 0 0 1
    outer loop
      vertex 0.610943 -2.25885 0.5
      vertex 2 -11.0957 0.5
      vertex 2.39838 -11.0165 0.5
    endloop
  endfacet
  facet normal 0 0 1
    outer loop
      vertex 0.610943 -2.25885 0.5
      vertex 0.299987 -2.32071 0.5
      vertex 2 -11.0957 0.5
    endloop
  endfacet
  facet normal 0 0 1
    outer loop
      vertex 0.299988 2.32071 0.5
      vertex 0.299987 -2.32071 0.5
      vertex 0.610943 -2.25885 0.5
    endloop
  endfacet
  facet normal -0 0 1
    outer loop
      vertex -0.299987 2.32071 0.5
      vertex 0.299987 -2.32071 0.5
      vertex 0.299988 2.32071 0.5
    endloop
  endfacet
  facet normal 0 0 1
    outer loop
      vertex -0.299987 2.32071 0.5
      vertex -0.299988 -2.32071 0.5
      vertex 0.299987 -2.32071 0.5
    endloop
  endfacet
  facet normal 0 0 1
    outer loop
      vertex -0.299987 2.32071 0.5
      vertex -0.610943 2.25885 0.5
      vertex -0.299988 -2.32071 0.5
    endloop
  endfacet
  facet normal 0 0 1
    outer loop
      vertex -2 11.0957 0.5
      vertex -0.610943 2.25885 0.5
      vertex -0.299987 2.32071 0.5
    endloop
  endfacet
  facet normal 0 0 1
    outer loop
      vertex -0.610943 2.25885 0.5
      vertex -2 11.0957 0.5
      vertex -2.39838 11.0165 0.5
    endloop
  endfacet
  facet normal 0 0 1
    outer loop
      vertex 2 11.0957 0.5
      vertex 0.610943 2.25885 0.5
      vertex 2.39838 11.0165 0.5
    endloop
  endfacet
  facet normal 0 0 1
    outer loop
      vertex 0.610943 2.25885 0.5
      vertex 0.299988 2.32071 0.5
      vertex 0.610943 -2.25885 0.5
    endloop
  endfacet
  facet normal -0 0 1
    outer loop
      vertex 0.299988 2.32071 0.5
      vertex 0.610943 2.25885 0.5
      vertex 2 11.0957 0.5
    endloop
  endfacet
  facet normal 0 0 1
    outer loop
      vertex 1.42886 -1.85311 0.5
      vertex 6.0939 -9.48572 0.5
      vertex 6.43163 -9.26006 0.5
    endloop
  endfacet
  facet normal 0 0 1
    outer loop
      vertex 1.42886 -1.85311 0.5
      vertex 1.16525 -2.02925 0.5
      vertex 6.0939 -9.48572 0.5
    endloop
  endfacet
  facet normal 0 0 1
    outer loop
      vertex 1.16525 2.02925 0.5
      vertex 1.16525 -2.02925 0.5
      vertex 1.42886 -1.85311 0.5
    endloop
  endfacet
  facet normal 0 0 1
    outer loop
      vertex 0.610943 2.25885 0.5
      vertex 1.16525 -2.02925 0.5
      vertex 1.16525 2.02925 0.5
    endloop
  endfacet
  facet normal 0 0 1
    outer loop
      vertex 1.16525 -2.02925 0.5
      vertex 0.610943 2.25885 0.5
      vertex 0.610943 -2.25885 0.5
    endloop
  endfacet
  facet normal 0 0 1
    outer loop
      vertex 2.02925 -1.16525 0.5
      vertex 9.26006 -6.43163 0.5
      vertex 9.48572 -6.0939 0.5
    endloop
  endfacet
  facet normal 0 0 1
    outer loop
      vertex 2.02925 -1.16525 0.5
      vertex 1.85311 -1.42886 0.5
      vertex 9.26006 -6.43163 0.5
    endloop
  endfacet
  facet normal 0 0 1
    outer loop
      vertex 1.85311 1.42886 0.5
      vertex 1.85311 -1.42886 0.5
      vertex 2.02925 -1.16525 0.5
    endloop
  endfacet
  facet normal 0 0 1
    outer loop
      vertex 1.42886 1.85311 0.5
      vertex 1.85311 -1.42886 0.5
      vertex 1.85311 1.42886 0.5
    endloop
  endfacet
  facet normal 0 0 1
    outer loop
      vertex 1.85311 -1.42886 0.5
      vertex 1.42886 1.85311 0.5
      vertex 1.42886 -1.85311 0.5
    endloop
  endfacet
  facet normal 0 0 1
    outer loop
      vertex 2.32071 -0.299988 0.5
      vertex 11.0165 -2.39838 0.5
      vertex 11.0957 -2 0.5
    endloop
  endfacet
  facet normal 0 0 1
    outer loop
      vertex 2.32071 -0.299988 0.5
      vertex 2.25885 -0.610943 0.5
      vertex 11.0165 -2.39838 0.5
    endloop
  endfacet
  facet normal 0 0 1
    outer loop
      vertex 2.25885 0.610943 0.5
      vertex 2.25885 -0.610943 0.5
      vertex 2.32071 -0.299988 0.5
    endloop
  endfacet
  facet normal 0 0 1
    outer loop
      vertex 2.02925 1.16525 0.5
      vertex 2.25885 -0.610943 0.5
      vertex 2.25885 0.610943 0.5
    endloop
  endfacet
  facet normal 0 0 1
    outer loop
      vertex 2.25885 -0.610943 0.5
      vertex 2.02925 1.16525 0.5
      vertex 2.02925 -1.16525 0.5
    endloop
  endfacet
  facet normal -0 0 1
    outer loop
      vertex 11.0957 2 0.5
      vertex 15 0 0.5
      vertex 14.7118 2.92635 0.5
    endloop
  endfacet
  facet normal 0 0 1
    outer loop
      vertex 11.0165 2.39838 0.5
      vertex 14.7118 2.92635 0.5
      vertex 13.8582 5.74025 0.5
    endloop
  endfacet
  facet normal 0 0 1
    outer loop
      vertex 11.0957 -2 0.5
      vertex 15 0 0.5
      vertex 11.0957 2 0.5
    endloop
  endfacet
  facet normal -0 0 1
    outer loop
      vertex 9.48572 6.0939 0.5
      vertex 13.8582 5.74025 0.5
      vertex 12.472 8.33355 0.5
    endloop
  endfacet
  facet normal 0 0 1
    outer loop
      vertex 15 0 0.5
      vertex 11.0957 -2 0.5
      vertex 14.7118 -2.92635 0.5
    endloop
  endfacet
  facet normal -0 0 1
    outer loop
      vertex 11.0165 -2.39838 0.5
      vertex 14.7118 -2.92635 0.5
      vertex 11.0957 -2 0.5
    endloop
  endfacet
  facet normal 0 0 1
    outer loop
      vertex 14.7118 2.92635 0.5
      vertex 11.0165 2.39838 0.5
      vertex 11.0957 2 0.5
    endloop
  endfacet
  facet normal 0 0 1
    outer loop
      vertex 9.26006 6.43163 0.5
      vertex 12.472 8.33355 0.5
      vertex 10.6066 10.6066 0.5
    endloop
  endfacet
  facet normal 0 0 1
    outer loop
      vertex 13.8582 5.74025 0.5
      vertex 9.48572 6.0939 0.5
      vertex 11.0165 2.39838 0.5
    endloop
  endfacet
  facet normal 0 0 1
    outer loop
      vertex 12.472 8.33355 0.5
      vertex 9.26006 6.43163 0.5
      vertex 9.48572 6.0939 0.5
    endloop
  endfacet
  facet normal 0 0 1
    outer loop
      vertex 6.43163 9.26006 0.5
      vertex 10.6066 10.6066 0.5
      vertex 8.33355 12.472 0.5
    endloop
  endfacet
  facet normal 0 0 1
    outer loop
      vertex 10.6066 10.6066 0.5
      vertex 6.43163 9.26006 0.5
      vertex 9.26006 6.43163 0.5
    endloop
  endfacet
  facet normal 0 0 1
    outer loop
      vertex 8.33355 12.472 0.5
      vertex 6.0939 9.48572 0.5
      vertex 6.43163 9.26006 0.5
    endloop
  endfacet
  facet normal 0 0 1
    outer loop
      vertex 5.74025 13.8582 0.5
      vertex 6.0939 9.48572 0.5
      vertex 8.33355 12.472 0.5
    endloop
  endfacet
  facet normal 0 0 1
    outer loop
      vertex 2.39838 11.0165 0.5
      vertex 5.74025 13.8582 0.5
      vertex 2.92635 14.7118 0.5
    endloop
  endfacet
  facet normal 0 0 1
    outer loop
      vertex 5.74025 13.8582 0.5
      vertex 2.39838 11.0165 0.5
      vertex 6.0939 9.48572 0.5
    endloop
  endfacet
  facet normal 0 0 1
    outer loop
      vertex 2.92635 14.7118 0.5
      vertex 2 11.0957 0.5
      vertex 2.39838 11.0165 0.5
    endloop
  endfacet
  facet normal 0 0 1
    outer loop
      vertex 0 15 0.5
      vertex 2 11.0957 0.5
      vertex 2.92635 14.7118 0.5
    endloop
  endfacet
  facet normal 0 0 1
    outer loop
      vertex 0 15 0.5
      vertex -2 11.0957 0.5
      vertex 2 11.0957 0.5
    endloop
  endfacet
  facet normal -0 0 1
    outer loop
      vertex -2.92635 14.7118 0.5
      vertex -2 11.0957 0.5
      vertex 0 15 0.5
    endloop
  endfacet
  facet normal 0 0 1
    outer loop
      vertex -2 11.0957 0.5
      vertex -2.92635 14.7118 0.5
      vertex -2.39838 11.0165 0.5
    endloop
  endfacet
  facet normal -0 0 1
    outer loop
      vertex -5.74025 13.8582 0.5
      vertex -2.39838 11.0165 0.5
      vertex -2.92635 14.7118 0.5
    endloop
  endfacet
  facet normal 0 0 1
    outer loop
      vertex -5.74025 13.8582 0.5
      vertex -6.0939 9.48572 0.5
      vertex -2.39838 11.0165 0.5
    endloop
  endfacet
  facet normal -0 0 1
    outer loop
      vertex -8.33355 12.472 0.5
      vertex -6.0939 9.48572 0.5
      vertex -5.74025 13.8582 0.5
    endloop
  endfacet
  facet normal 0 0 1
    outer loop
      vertex -6.0939 9.48572 0.5
      vertex -8.33355 12.472 0.5
      vertex -6.43163 9.26006 0.5
    endloop
  endfacet
  facet normal -0 0 1
    outer loop
      vertex -10.6066 10.6066 0.5
      vertex -6.43163 9.26006 0.5
      vertex -8.33355 12.472 0.5
    endloop
  endfacet
  facet normal 0 0 1
    outer loop
      vertex -6.43163 9.26006 0.5
      vertex -10.6066 10.6066 0.5
      vertex -9.26006 6.43163 0.5
    endloop
  endfacet
  facet normal -0 0 1
    outer loop
      vertex -12.472 8.33355 0.5
      vertex -9.26006 6.43163 0.5
      vertex -10.6066 10.6066 0.5
    endloop
  endfacet
  facet normal 0 0 1
    outer loop
      vertex -9.26006 6.43163 0.5
      vertex -12.472 8.33355 0.5
      vertex -9.48572 6.0939 0.5
    endloop
  endfacet
  facet normal 0 0 1
    outer loop
      vertex -13.8582 5.74025 0.5
      vertex -9.48572 6.0939 0.5
      vertex -12.472 8.33355 0.5
    endloop
  endfacet
  facet normal -0 0 1
    outer loop
      vertex -14.7118 2.92635 0.5
      vertex -11.0165 2.39838 0.5
      vertex -13.8582 5.74025 0.5
    endloop
  endfacet
  facet normal 0 0 1
    outer loop
      vertex -9.48572 6.0939 0.5
      vertex -13.8582 5.74025 0.5
      vertex -11.0165 2.39838 0.5
    endloop
  endfacet
  facet normal 0 0 1
    outer loop
      vertex 14.7118 -2.92635 0.5
      vertex 11.0165 -2.39838 0.5
      vertex 13.8582 -5.74025 0.5
    endloop
  endfacet
  facet normal 0 0 1
    outer loop
      vertex 9.48572 -6.0939 0.5
      vertex 13.8582 -5.74025 0.5
      vertex 11.0165 -2.39838 0.5
    endloop
  endfacet
  facet normal 0 0 1
    outer loop
      vertex 13.8582 -5.74025 0.5
      vertex 9.48572 -6.0939 0.5
      vertex 12.472 -8.33355 0.5
    endloop
  endfacet
  facet normal -0 0 1
    outer loop
      vertex 9.26006 -6.43163 0.5
      vertex 12.472 -8.33355 0.5
      vertex 9.48572 -6.0939 0.5
    endloop
  endfacet
  facet normal 0 0 1
    outer loop
      vertex 12.472 -8.33355 0.5
      vertex 9.26006 -6.43163 0.5
      vertex 10.6066 -10.6066 0.5
    endloop
  endfacet
  facet normal -0 0 1
    outer loop
      vertex 6.43163 -9.26006 0.5
      vertex 10.6066 -10.6066 0.5
      vertex 9.26006 -6.43163 0.5
    endloop
  endfacet
  facet normal 0 0 1
    outer loop
      vertex 10.6066 -10.6066 0.5
      vertex 6.43163 -9.26006 0.5
      vertex 8.33355 -12.472 0.5
    endloop
  endfacet
  facet normal -0 0 1
    outer loop
      vertex 6.0939 -9.48572 0.5
      vertex 8.33355 -12.472 0.5
      vertex 6.43163 -9.26006 0.5
    endloop
  endfacet
  facet normal 0 0 1
    outer loop
      vertex 6.0939 -9.48572 0.5
      vertex 5.74025 -13.8582 0.5
      vertex 8.33355 -12.472 0.5
    endloop
  endfacet
  facet normal -0 0 1
    outer loop
      vertex 2.39838 -11.0165 0.5
      vertex 5.74025 -13.8582 0.5
      vertex 6.0939 -9.48572 0.5
    endloop
  endfacet
  facet normal 0 0 1
    outer loop
      vertex 5.74025 -13.8582 0.5
      vertex 2.39838 -11.0165 0.5
      vertex 2.92635 -14.7118 0.5
    endloop
  endfacet
  facet normal -0 0 1
    outer loop
      vertex 2 -11.0957 0.5
      vertex 2.92635 -14.7118 0.5
      vertex 2.39838 -11.0165 0.5
    endloop
  endfacet
  facet normal 0 0 1
    outer loop
      vertex 2 -11.0957 0.5
      vertex 0 -15 0.5
      vertex 2.92635 -14.7118 0.5
    endloop
  endfacet
  facet normal -0 0 1
    outer loop
      vertex -2 -11.0957 0.5
      vertex 0 -15 0.5
      vertex 2 -11.0957 0.5
    endloop
  endfacet
  facet normal 0 0 1
    outer loop
      vertex -2.92635 -14.7118 0.5
      vertex -2 -11.0957 0.5
      vertex -2.39838 -11.0165 0.5
    endloop
  endfacet
  facet normal 0 0 1
    outer loop
      vertex -2 -11.0957 0.5
      vertex -2.92635 -14.7118 0.5
      vertex 0 -15 0.5
    endloop
  endfacet
  facet normal 0 0 1
    outer loop
      vertex -2.39838 -11.0165 0.5
      vertex -5.74025 -13.8582 0.5
      vertex -2.92635 -14.7118 0.5
    endloop
  endfacet
  facet normal 0 0 1
    outer loop
      vertex -6.0939 -9.48572 0.5
      vertex -5.74025 -13.8582 0.5
      vertex -2.39838 -11.0165 0.5
    endloop
  endfacet
  facet normal 0 0 1
    outer loop
      vertex -8.33355 -12.472 0.5
      vertex -6.0939 -9.48572 0.5
      vertex -6.43163 -9.26006 0.5
    endloop
  endfacet
  facet normal 0 0 1
    outer loop
      vertex -6.0939 -9.48572 0.5
      vertex -8.33355 -12.472 0.5
      vertex -5.74025 -13.8582 0.5
    endloop
  endfacet
  facet normal 0 0 1
    outer loop
      vertex -10.6066 -10.6066 0.5
      vertex -6.43163 -9.26006 0.5
      vertex -9.26006 -6.43163 0.5
    endloop
  endfacet
  facet normal 0 0 1
    outer loop
      vertex -12.472 -8.33355 0.5
      vertex -9.26006 -6.43163 0.5
      vertex -9.48572 -6.0939 0.5
    endloop
  endfacet
  facet normal 0 0 1
    outer loop
      vertex -6.43163 -9.26006 0.5
      vertex -10.6066 -10.6066 0.5
      vertex -8.33355 -12.472 0.5
    endloop
  endfacet
  facet normal -0 0 1
    outer loop
      vertex -13.8582 -5.74025 0.5
      vertex -9.48572 -6.0939 0.5
      vertex -11.0165 -2.39838 0.5
    endloop
  endfacet
  facet normal 0 0 1
    outer loop
      vertex -14.7118 -2.92635 0.5
      vertex -11.0165 -2.39838 0.5
      vertex -11.0957 -2 0.5
    endloop
  endfacet
  facet normal 0 0 1
    outer loop
      vertex -11.0165 2.39838 0.5
      vertex -14.7118 2.92635 0.5
      vertex -11.0957 2 0.5
    endloop
  endfacet
  facet normal 0 0 1
    outer loop
      vertex -9.26006 -6.43163 0.5
      vertex -12.472 -8.33355 0.5
      vertex -10.6066 -10.6066 0.5
    endloop
  endfacet
  facet normal 0 0 1
    outer loop
      vertex -15 0 0.5
      vertex -11.0957 2 0.5
      vertex -14.7118 2.92635 0.5
    endloop
  endfacet
  facet normal 0 0 1
    outer loop
      vertex -9.48572 -6.0939 0.5
      vertex -13.8582 -5.74025 0.5
      vertex -12.472 -8.33355 0.5
    endloop
  endfacet
  facet normal 0 0 1
    outer loop
      vertex -11.0957 2 0.5
      vertex -15 0 0.5
      vertex -11.0957 -2 0.5
    endloop
  endfacet
  facet normal 0 0 1
    outer loop
      vertex -11.0165 -2.39838 0.5
      vertex -14.7118 -2.92635 0.5
      vertex -13.8582 -5.74025 0.5
    endloop
  endfacet
  facet normal 0 0 1
    outer loop
      vertex -11.0957 -2 0.5
      vertex -15 0 0.5
      vertex -14.7118 -2.92635 0.5
    endloop
  endfacet
  facet normal 0 0 1
    outer loop
      vertex 11.0165 2.39838 0.5
      vertex 2.32071 0.299988 0.5
      vertex 11.0957 2 0.5
    endloop
  endfacet
  facet normal 0 0 1
    outer loop
      vertex 2.32071 0.299988 0.5
      vertex 2.25885 0.610943 0.5
      vertex 2.32071 -0.299988 0.5
    endloop
  endfacet
  facet normal -0 0 1
    outer loop
      vertex 2.25885 0.610943 0.5
      vertex 2.32071 0.299988 0.5
      vertex 11.0165 2.39838 0.5
    endloop
  endfacet
  facet normal 0 0 1
    outer loop
      vertex 9.26006 6.43163 0.5
      vertex 2.02925 1.16525 0.5
      vertex 9.48572 6.0939 0.5
    endloop
  endfacet
  facet normal 0 0 1
    outer loop
      vertex 2.02925 1.16525 0.5
      vertex 1.85311 1.42886 0.5
      vertex 2.02925 -1.16525 0.5
    endloop
  endfacet
  facet normal -0 0 1
    outer loop
      vertex 1.85311 1.42886 0.5
      vertex 2.02925 1.16525 0.5
      vertex 9.26006 6.43163 0.5
    endloop
  endfacet
  facet normal 0 0 1
    outer loop
      vertex 6.0939 9.48572 0.5
      vertex 1.42886 1.85311 0.5
      vertex 6.43163 9.26006 0.5
    endloop
  endfacet
  facet normal 0 0 1
    outer loop
      vertex 1.42886 1.85311 0.5
      vertex 1.16525 2.02925 0.5
      vertex 1.42886 -1.85311 0.5
    endloop
  endfacet
  facet normal -0 0 1
    outer loop
      vertex 1.16525 2.02925 0.5
      vertex 1.42886 1.85311 0.5
      vertex 6.0939 9.48572 0.5
    endloop
  endfacet
  facet normal -0.471397 0.881921 0
    outer loop
      vertex -5.74025 13.8582 -0.5
      vertex -8.33355 12.472 0.5
      vertex -5.74025 13.8582 0.5
    endloop
  endfacet
  facet normal -0.471397 0.881921 0
    outer loop
      vertex -8.33355 12.472 0.5
      vertex -5.74025 13.8582 -0.5
      vertex -8.33355 12.472 -0.5
    endloop
  endfacet
  facet normal -0.0980173 0.995185 0
    outer loop
      vertex 0 15 -0.5
      vertex -2.92635 14.7118 0.5
      vertex 0 15 0.5
    endloop
  endfacet
  facet normal -0.0980173 0.995185 0
    outer loop
      vertex -2.92635 14.7118 0.5
      vertex 0 15 -0.5
      vertex -2.92635 14.7118 -0.5
    endloop
  endfacet
  facet normal 0.0980173 -0.995185 0
    outer loop
      vertex 0 -15 -0.5
      vertex 2.92635 -14.7118 0.5
      vertex 0 -15 0.5
    endloop
  endfacet
  facet normal 0.0980173 -0.995185 0
    outer loop
      vertex 2.92635 -14.7118 0.5
      vertex 0 -15 -0.5
      vertex 2.92635 -14.7118 -0.5
    endloop
  endfacet
  facet normal 0.471397 -0.881921 0
    outer loop
      vertex 5.74025 -13.8582 -0.5
      vertex 8.33355 -12.472 0.5
      vertex 5.74025 -13.8582 0.5
    endloop
  endfacet
  facet normal 0.471397 -0.881921 0
    outer loop
      vertex 8.33355 -12.472 0.5
      vertex 5.74025 -13.8582 -0.5
      vertex 8.33355 -12.472 -0.5
    endloop
  endfacet
  facet normal -0.634393 -0.773011 0
    outer loop
      vertex -10.6066 -10.6066 -0.5
      vertex -8.33355 -12.472 0.5
      vertex -10.6066 -10.6066 0.5
    endloop
  endfacet
  facet normal -0.634393 -0.773011 -0
    outer loop
      vertex -8.33355 -12.472 0.5
      vertex -10.6066 -10.6066 -0.5
      vertex -8.33355 -12.472 -0.5
    endloop
  endfacet
  facet normal -0.290285 -0.95694 0
    outer loop
      vertex -5.74025 -13.8582 -0.5
      vertex -2.92635 -14.7118 0.5
      vertex -5.74025 -13.8582 0.5
    endloop
  endfacet
  facet normal -0.290285 -0.95694 -0
    outer loop
      vertex -2.92635 -14.7118 0.5
      vertex -5.74025 -13.8582 -0.5
      vertex -2.92635 -14.7118 -0.5
    endloop
  endfacet
  facet normal -0.881921 -0.471397 0
    outer loop
      vertex -12.472 -8.33355 -0.5
      vertex -13.8582 -5.74025 0.5
      vertex -13.8582 -5.74025 -0.5
    endloop
  endfacet
  facet normal -0.881921 -0.471397 0
    outer loop
      vertex -13.8582 -5.74025 0.5
      vertex -12.472 -8.33355 -0.5
      vertex -12.472 -8.33355 0.5
    endloop
  endfacet
  facet normal -0.995185 -0.0980173 0
    outer loop
      vertex -14.7118 -2.92635 -0.5
      vertex -15 0 0.5
      vertex -15 0 -0.5
    endloop
  endfacet
  facet normal -0.995185 -0.0980173 0
    outer loop
      vertex -15 0 0.5
      vertex -14.7118 -2.92635 -0.5
      vertex -14.7118 -2.92635 0.5
    endloop
  endfacet
  facet normal 0.290285 -0.95694 0
    outer loop
      vertex 2.92635 -14.7118 -0.5
      vertex 5.74025 -13.8582 0.5
      vertex 2.92635 -14.7118 0.5
    endloop
  endfacet
  facet normal 0.290285 -0.95694 0
    outer loop
      vertex 5.74025 -13.8582 0.5
      vertex 2.92635 -14.7118 -0.5
      vertex 5.74025 -13.8582 -0.5
    endloop
  endfacet
  facet normal 0.995185 -0.0980173 0
    outer loop
      vertex 14.7118 -2.92635 0.5
      vertex 15 0 -0.5
      vertex 15 0 0.5
    endloop
  endfacet
  facet normal 0.995185 -0.0980173 0
    outer loop
      vertex 15 0 -0.5
      vertex 14.7118 -2.92635 0.5
      vertex 14.7118 -2.92635 -0.5
    endloop
  endfacet
  facet normal -0.471397 -0.881921 0
    outer loop
      vertex -8.33355 -12.472 -0.5
      vertex -5.74025 -13.8582 0.5
      vertex -8.33355 -12.472 0.5
    endloop
  endfacet
  facet normal -0.471397 -0.881921 -0
    outer loop
      vertex -5.74025 -13.8582 0.5
      vertex -8.33355 -12.472 -0.5
      vertex -5.74025 -13.8582 -0.5
    endloop
  endfacet
  facet normal -0.0980173 -0.995185 0
    outer loop
      vertex -2.92635 -14.7118 -0.5
      vertex 0 -15 0.5
      vertex -2.92635 -14.7118 0.5
    endloop
  endfacet
  facet normal -0.0980173 -0.995185 -0
    outer loop
      vertex 0 -15 0.5
      vertex -2.92635 -14.7118 -0.5
      vertex 0 -15 -0.5
    endloop
  endfacet
  facet normal -0.95694 -0.290285 0
    outer loop
      vertex -13.8582 -5.74025 -0.5
      vertex -14.7118 -2.92635 0.5
      vertex -14.7118 -2.92635 -0.5
    endloop
  endfacet
  facet normal -0.95694 -0.290285 0
    outer loop
      vertex -14.7118 -2.92635 0.5
      vertex -13.8582 -5.74025 -0.5
      vertex -13.8582 -5.74025 0.5
    endloop
  endfacet
  facet normal 0.881921 -0.471397 0
    outer loop
      vertex 12.472 -8.33355 0.5
      vertex 13.8582 -5.74025 -0.5
      vertex 13.8582 -5.74025 0.5
    endloop
  endfacet
  facet normal 0.881921 -0.471397 0
    outer loop
      vertex 13.8582 -5.74025 -0.5
      vertex 12.472 -8.33355 0.5
      vertex 12.472 -8.33355 -0.5
    endloop
  endfacet
  facet normal 0.95694 -0.290285 0
    outer loop
      vertex 13.8582 -5.74025 0.5
      vertex 14.7118 -2.92635 -0.5
      vertex 14.7118 -2.92635 0.5
    endloop
  endfacet
  facet normal 0.95694 -0.290285 0
    outer loop
      vertex 14.7118 -2.92635 -0.5
      vertex 13.8582 -5.74025 0.5
      vertex 13.8582 -5.74025 -0.5
    endloop
  endfacet
  facet normal 0 0 1
    outer loop
      vertex 2.32071 0.299988 0.5
      vertex 11.0957 2 0.5
      vertex 11.0957 -2 0.5
    endloop
  endfacet
  facet normal 0 0 1
    outer loop
      vertex 2.32071 0.299988 0.5
      vertex 11.0957 -2 0.5
      vertex 2.32071 -0.299988 0.5
    endloop
  endfacet
  facet normal 0 0 1
    outer loop
      vertex 2.02925 1.16525 0.5
      vertex 9.48572 6.0939 0.5
      vertex 11.0165 2.39838 0.5
    endloop
  endfacet
  facet normal 0 0 1
    outer loop
      vertex 2.02925 1.16525 0.5
      vertex 11.0165 2.39838 0.5
      vertex 2.25885 0.610943 0.5
    endloop
  endfacet
  facet normal 0 0 1
    outer loop
      vertex 1.42886 1.85311 0.5
      vertex 6.43163 9.26006 0.5
      vertex 9.26006 6.43163 0.5
    endloop
  endfacet
  facet normal 0 0 1
    outer loop
      vertex 1.42886 1.85311 0.5
      vertex 9.26006 6.43163 0.5
      vertex 1.85311 1.42886 0.5
    endloop
  endfacet
  facet normal 0 0 1
    outer loop
      vertex 0.610943 2.25885 0.5
      vertex 2.39838 11.0165 0.5
      vertex 6.0939 9.48572 0.5
    endloop
  endfacet
  facet normal 0 0 1
    outer loop
      vertex 0.610943 2.25885 0.5
      vertex 6.0939 9.48572 0.5
      vertex 1.16525 2.02925 0.5
    endloop
  endfacet
  facet normal 0 0 1
    outer loop
      vertex -0.299987 2.32071 0.5
      vertex -2 11.0957 0.5
      vertex 2 11.0957 0.5
    endloop
  endfacet
  facet normal 0 0 1
    outer loop
      vertex -0.299987 2.32071 0.5
      vertex 2 11.0957 0.5
      vertex 0.299988 2.32071 0.5
    endloop
  endfacet
  facet normal 0 0 1
    outer loop
      vertex -1.16525 2.02925 0.5
      vertex -6.0939 9.48572 0.5
      vertex -2.39838 11.0165 0.5
    endloop
  endfacet
  facet normal 0 0 1
    outer loop
      vertex -1.16525 2.02925 0.5
      vertex -2.39838 11.0165 0.5
      vertex -0.610943 2.25885 0.5
    endloop
  endfacet
  facet normal 0 0 1
    outer loop
      vertex -1.85311 1.42886 0.5
      vertex -9.26006 6.43163 0.5
      vertex -6.43163 9.26006 0.5
    endloop
  endfacet
  facet normal 0 0 1
    outer loop
      vertex -1.85311 1.42886 0.5
      vertex -6.43163 9.26006 0.5
      vertex -1.42886 1.85311 0.5
    endloop
  endfacet
  facet normal 0 0 1
    outer loop
      vertex -2.25885 0.610943 0.5
      vertex -11.0165 2.39838 0.5
      vertex -9.48572 6.0939 0.5
    endloop
  endfacet
  facet normal 0 0 1
    outer loop
      vertex -2.25885 0.610943 0.5
      vertex -9.48572 6.0939 0.5
      vertex -2.02925 1.16525 0.5
    endloop
  endfacet
  facet normal 0 0 1
    outer loop
      vertex -2.32071 -0.299987 0.5
      vertex -11.0957 -2 0.5
      vertex -11.0957 2 0.5
    endloop
  endfacet
  facet normal 0 0 1
    outer loop
      vertex -2.32071 -0.299987 0.5
      vertex -11.0957 2 0.5
      vertex -2.32071 0.299988 0.5
    endloop
  endfacet
  facet normal 0 0 1
    outer loop
      vertex -2.02925 -1.16525 0.5
      vertex -9.48572 -6.0939 0.5
      vertex -11.0165 -2.39838 0.5
    endloop
  endfacet
  facet normal 0 0 1
    outer loop
      vertex -2.02925 -1.16525 0.5
      vertex -11.0165 -2.39838 0.5
      vertex -2.25885 -0.610943 0.5
    endloop
  endfacet
  facet normal 0 0 1
    outer loop
      vertex -1.42886 -1.85311 0.5
      vertex -6.43163 -9.26006 0.5
      vertex -9.26006 -6.43163 0.5
    endloop
  endfacet
  facet normal 0 0 1
    outer loop
      vertex -1.42886 -1.85311 0.5
      vertex -9.26006 -6.43163 0.5
      vertex -1.85311 -1.42886 0.5
    endloop
  endfacet
  facet normal 0 0 1
    outer loop
      vertex -0.610943 -2.25885 0.5
      vertex -2.39838 -11.0165 0.5
      vertex -6.0939 -9.48572 0.5
    endloop
  endfacet
  facet normal 0 0 1
    outer loop
      vertex -0.610943 -2.25885 0.5
      vertex -6.0939 -9.48572 0.5
      vertex -1.16525 -2.02925 0.5
    endloop
  endfacet
  facet normal 0 0 1
    outer loop
      vertex 0.299987 -2.32071 0.5
      vertex 2 -11.0957 0.5
      vertex -2 -11.0957 0.5
    endloop
  endfacet
  facet normal 0 0 1
    outer loop
      vertex 0.299987 -2.32071 0.5
      vertex -2 -11.0957 0.5
      vertex -0.299988 -2.32071 0.5
    endloop
  endfacet
  facet normal 0 0 1
    outer loop
      vertex 1.16525 -2.02925 0.5
      vertex 6.0939 -9.48572 0.5
      vertex 2.39838 -11.0165 0.5
    endloop
  endfacet
  facet normal 0 0 1
    outer loop
      vertex 1.16525 -2.02925 0.5
      vertex 2.39838 -11.0165 0.5
      vertex 0.610943 -2.25885 0.5
    endloop
  endfacet
  facet normal 0 0 1
    outer loop
      vertex 1.85311 -1.42886 0.5
      vertex 9.26006 -6.43163 0.5
      vertex 6.43163 -9.26006 0.5
    endloop
  endfacet
  facet normal 0 0 1
    outer loop
      vertex 1.85311 -1.42886 0.5
      vertex 6.43163 -9.26006 0.5
      vertex 1.42886 -1.85311 0.5
    endloop
  endfacet
  facet normal 0 0 1
    outer loop
      vertex 2.25885 -0.610943 0.5
      vertex 11.0165 -2.39838 0.5
      vertex 9.48572 -6.0939 0.5
    endloop
  endfacet
  facet normal 0 0 1
    outer loop
      vertex 2.25885 -0.610943 0.5
      vertex 9.48572 -6.0939 0.5
      vertex 2.02925 -1.16525 0.5
    endloop
  endfacet
endsolid OpenSCAD_Model
